<svg xmlns="http://www.w3.org/2000/svg" width="227" height="219" viewBox="0 0 227 219">
<g>
<path d="M 136.50 200.23 C129.70,202.10 106.18,203.51 100.00,202.40 C95.52,201.60 85.60,198.90 81.25,197.30 L 77.00 195.73 L 77.00 146.36 C77.00,119.21 77.18,97.00 77.41,97.00 C77.63,97.00 80.89,100.21 84.66,104.13 C88.42,108.06 98.15,116.63 106.27,123.18 C124.94,138.25 129.00,144.21 129.00,156.59 C129.00,161.12 128.54,162.46 125.95,165.40 C121.92,169.99 117.22,171.56 112.32,169.94 C108.23,168.59 103.00,163.49 103.00,160.84 C103.00,158.83 99.84,157.60 97.00,158.50 C94.64,159.25 94.49,160.90 96.40,165.28 C100.50,174.70 111.38,180.03 121.23,177.45 C130.05,175.14 136.98,166.07 136.99,156.80 C137.01,149.01 132.38,136.25 127.68,131.13 C126.48,129.83 119.20,123.70 111.50,117.51 C94.09,103.51 83.81,92.83 76.97,81.63 C74.06,76.87 71.07,72.48 70.34,71.87 C69.22,70.94 69.00,80.67 69.00,130.21 C69.00,162.91 68.71,189.95 68.36,190.30 C67.34,191.32 56.22,183.07 48.87,175.85 C39.40,166.54 31.30,153.36 27.03,140.31 C20.25,119.57 22.09,92.80 31.61,73.70 C48.92,38.97 85.13,18.67 122.10,22.96 C132.55,24.18 140.67,26.00 146.50,28.44 L 150.00 29.90 L 150.00 78.95 C150.00,105.93 149.71,128.00 149.35,128.00 C148.99,128.00 146.24,125.29 143.25,121.99 C140.26,118.68 130.20,109.85 120.91,102.37 C105.39,89.88 103.76,88.25 100.92,82.49 C98.95,78.48 97.63,74.01 97.28,70.11 L 96.72 64.01 L 101.23 59.51 C105.20,55.53 106.26,55.00 110.12,55.00 C115.80,55.01 120.36,57.83 122.98,62.96 C124.68,66.29 125.56,67.00 127.96,67.00 C129.57,67.00 131.14,66.58 131.46,66.07 C132.56,64.29 127.27,54.31 123.87,51.73 C116.75,46.35 107.28,45.89 99.34,50.54 C89.06,56.57 86.64,71.09 93.55,85.41 C96.93,92.43 100.22,95.76 117.59,109.69 C134.93,123.62 139.45,128.40 149.26,143.20 C153.16,149.09 156.72,153.67 157.17,153.39 C157.63,153.11 158.00,126.36 158.00,93.94 C158.00,47.45 158.26,35.00 159.25,35.01 C161.52,35.03 173.84,45.01 180.22,52.00 C190.54,63.30 198.30,78.20 201.59,93.00 C203.87,103.28 203.91,122.30 201.68,131.77 C193.79,165.25 169.06,191.22 136.50,200.23 Z" fill="rgb(2,3,5)"/>
<path d="M 0.00 109.50 L 0.00 0.00 L 113.50 0.00 L 227.00 0.00 L 227.00 109.50 L 227.00 219.00 L 113.50 219.00 L 0.00 219.00 L 0.00 109.50 ZM 136.50 200.23 C169.06,191.22 193.79,165.25 201.68,131.77 C203.91,122.30 203.87,103.28 201.59,93.00 C198.30,78.20 190.54,63.30 180.22,52.00 C173.84,45.01 161.52,35.03 159.25,35.01 C158.26,35.00 158.00,47.45 158.00,93.94 C158.00,126.36 157.63,153.11 157.17,153.39 C156.72,153.67 153.16,149.09 149.26,143.20 C139.45,128.40 134.93,123.62 117.59,109.69 C100.22,95.76 96.93,92.43 93.55,85.41 C86.64,71.09 89.06,56.57 99.34,50.54 C107.28,45.89 116.75,46.35 123.87,51.73 C127.27,54.31 132.56,64.29 131.46,66.07 C131.14,66.58 129.57,67.00 127.96,67.00 C125.56,67.00 124.68,66.29 122.98,62.96 C120.36,57.83 115.80,55.01 110.12,55.00 C106.26,55.00 105.20,55.53 101.23,59.51 L 96.72 64.01 L 97.28 70.11 C97.63,74.01 98.95,78.48 100.92,82.49 C103.76,88.25 105.39,89.88 120.91,102.37 C130.20,109.85 140.26,118.68 143.25,121.99 C146.24,125.29 148.99,128.00 149.35,128.00 C149.71,128.00 150.00,105.93 150.00,78.95 L 150.00 29.90 L 146.50 28.44 C140.67,26.00 132.55,24.18 122.10,22.96 C85.13,18.67 48.92,38.97 31.61,73.70 C22.09,92.80 20.25,119.57 27.03,140.31 C31.30,153.36 39.40,166.54 48.87,175.85 C56.22,183.07 67.34,191.32 68.36,190.30 C68.71,189.95 69.00,162.91 69.00,130.21 C69.00,80.67 69.22,70.94 70.34,71.87 C71.07,72.48 74.06,76.87 76.97,81.63 C83.81,92.83 94.09,103.51 111.50,117.51 C119.20,123.70 126.48,129.83 127.68,131.13 C132.38,136.25 137.01,149.01 136.99,156.80 C136.98,166.07 130.05,175.14 121.23,177.45 C111.38,180.03 100.50,174.70 96.40,165.28 C94.49,160.90 94.64,159.25 97.00,158.50 C99.84,157.60 103.00,158.83 103.00,160.84 C103.00,163.49 108.23,168.59 112.32,169.94 C117.22,171.56 121.92,169.99 125.95,165.40 C128.54,162.46 129.00,161.12 129.00,156.59 C129.00,144.21 124.94,138.25 106.27,123.18 C98.15,116.63 88.42,108.06 84.66,104.13 C80.89,100.21 77.63,97.00 77.41,97.00 C77.18,97.00 77.00,119.21 77.00,146.36 L 77.00 195.73 L 81.25 197.30 C85.60,198.90 95.52,201.60 100.00,202.40 C106.18,203.51 129.70,202.10 136.50,200.23 Z" fill="rgb(254,254,254)"/>
</g>
</svg>